<svg xmlns="http://www.w3.org/2000/svg" width="602" height="134" viewBox="0 0 602 134" preserveAspectRatio="xMidYMid meet">
  <g fill="none" fill-rule="evenodd" transform="translate(1 1)">
    <path fill="#FFF" d="M266.453975 28.1305017L265.972894 27.627907 265.496803 28.1305017C248.717833 45.6125182 241.237113 66.3450324 241.237113 95.3597687L241.340915 101.302326 241.98269 101.279218 248.700865 101.279218 248.700865 100.659158C248.700865 90.4166243 249.101101 82.1161086 249.914549 75.2550165L281.949395 75.2550165C282.754858 80.9713095 283.154096 88.4206877 283.154096 98.0980434L283.154096 101.279218 290.612857 101.279218 290.721649 94.9775271C290.721649 66.2400845 283.232945 45.6240721 266.453975 28.1305017M0 64.4594177C0 74.7044282 3.62544544 83.7593953 10.4704884 90.6584179 17.3757288 97.5232492 26.5073074 101.302326 36.1709545 101.302326 43.6587519 101.302326 49.9445402 99.5899168 55.3827084 96.0682241L55.6701031 95.882072 55.6701031 87.0123072 54.6282973 87.8908309C49.4950005 92.1865742 43.4616535 94.2769856 36.1709545 94.2769856 20.2302574 94.2769856 7.74509326 81.1789102 7.74509326 64.4594177 7.74509326 47.8007097 20.2302574 34.7529713 36.1709545 34.7529713 43.4723337 34.7529713 48.6570896 36.5461093 54.644803 41.150523L55.6701031 41.9340712 55.6701031 32.9322904 55.3487259 32.7575354C49.0231295 29.2120988 43.3140724 27.627907 36.8350693 27.627907 15.8397206 27.627907 0 43.4660265 0 64.4594177M135.443687 30.6976744L128.230019 30.6976744 128.230019 81.9422313C128.230019 91.2957228 123.71717 96.6726784 115.837155 96.6726784 108.310491 96.6726784 103.825202 91.0160247 103.825202 81.5564407L103.825202 30.6976744 95.8762887 30.6976744 95.8762887 81.6509594C95.8762887 87.171622 96.1794419 91.7702452 99.9737782 96.5472965 103.984653 101.659986 109.571333 104.372093 116.127513 104.372093 128.246751 104.372093 136.082474 95.5673885 136.082474 81.9422313L136.082474 30.6976744 135.443687 30.6976744zM184.258495 39.640214C192.703108 41.2484535 198.772857 48.3777724 198.772857 56.9218441 198.772857 62.9975219 195.821824 68.1325856 189.746226 72.6153496 187.926082 73.9802938 186.468601 74.5502179 185.400107 74.9630536 184.964325 75.1450462 184.580213 75.3069238 184.258495 75.4965792L184.258495 39.640214zM176.927222 30.6976744L176.28866 30.6976744 176.28866 102.729371 184.258495 102.729371 184.258495 80.2226385C185.287018 83.5770487 187.378186 88.5368248 190.774749 92.8854891 194.425762 97.5904756 199.371447 101.116342 206.334207 104.003319L207.216495 104.372093 207.216495 95.7954543 206.866505 95.6220824C200.241061 92.3232279 195.250531 86.9419953 193.081371 80.8404554 202.824555 73.2044308 206.837257 66.2168745 206.837257 56.8270164 206.837257 41.9323623 194.261979 30.6976744 177.594055 30.6976744L176.927222 30.6976744zM321.649485 64.4594177C321.649485 74.6987297 325.272988 83.7593953 332.119973 90.6584179 339.030068 97.5232492 348.156792 101.302326 357.828207 101.302326 365.30144 101.302326 371.58917 99.5899168 377.026367 96.0682241L377.319588 95.882072 377.319588 87.0123072 376.271956 87.8908309C371.145456 92.1865742 365.104342 94.2769856 357.828207 94.2769856 341.8778 94.2769856 329.388752 81.1789102 329.388752 64.4594177 329.388752 47.8007097 341.8778 34.7529713 357.828207 34.7529713 365.120847 34.7529713 370.304632 36.5461093 376.292346 41.150523L377.319588 41.9340712 377.319588 32.9322904 376.993356 32.7575354C370.672614 29.2120988 364.961615 27.627907 358.490379 27.627907 337.489205 27.627907 321.649485 43.4660265 321.649485 64.4594177M439.64537 28.1305017L439.169269 27.627907 438.696163 28.1305017C421.907872 45.6125182 414.43299 66.3450324 414.43299 95.3597687L414.542782 101.302326 415.172593 101.279218 421.896892 101.279218 421.896892 100.659158C421.896892 90.4166243 422.296138 82.1161086 423.112596 75.2550165L455.147091 75.2550165C455.958558 80.9713095 456.351816 88.4206877 456.351816 98.0980434L456.351816 101.279218 463.803741 101.279218 463.917526 94.9775271C463.917526 66.2400845 456.425676 45.6240721 439.64537 28.1305017M502.710955 64.4594177C502.710955 47.5243309 515.241294 34.7529713 531.862649 34.7529713 548.372609 34.7529713 561.306135 47.8007097 561.306135 64.4594177 561.306135 81.4533894 548.724535 94.2769856 532.05882 94.2769856 515.598149 94.2769856 502.710955 81.1789102 502.710955 64.4594177M503.118085 41.0223061C497.703157 47.4530992 494.845361 55.5535622 494.845361 64.4594177 494.845361 74.670237 498.556849 83.7005105 505.577624 90.5700906 512.648674 97.4900078 522.08167 101.302326 532.155427 101.302326 543.681249 101.302326 553.58348 96.6979119 560.797469 88.0000528 566.210425 81.5711591 569.072165 73.4298566 569.072165 64.4594177 569.072165 53.0728014 564.283212 42.9702542 555.577727 35.9829044 548.823114 30.5237109 540.621366 27.627907 531.862649 27.627907 520.385131 27.627907 510.171391 32.3871308 503.118085 41.0223061"/>
    <path fill="#FAAB29" d="M594.008257 64.7191836C588.517581 66.4317912 581.701809 69.3266024 576.063679 66.0265176 573.057805 63.6891911 571.666953 59.8390922 572.325516 56.8098123 575.260651 50.8997285 583.537016 52.2079964 589.24987 52.5479032 590.566995 53.237055 593.206226 51.6579822 593.638625 53.8543035 595.251654 54.3314804 597.225349 54.6844606 598.179816 55.9899271 598.911109 56.1271972 599.570667 56.8817157 599.942292 57.4924275 600.524138 61.2136606 596.574757 63.0672736 594.008257 64.7191836M592.533251 92.0930233C588.053526 91.9533313 582.653914 91.6041013 577.863359 91.7485773 576.167448 91.2510442 574.538744 90.7592519 572.851234 90.2645892 570.768886 88.7844283 568.134186 87.5166757 567.518828 84.9773434 566.441425 84.2052104 566.520183 82.9307602 565.979381 81.9529164 567.054683 80.6803798 566.202003 79.6269492 567.287806 78.4261723 569.446811 75.2553557 573.5464 77.5822796 576.776506 77.3641305 582.799878 79.3475653 588.51557 82.657117 593.460489 86.5302207 594.002341 88.5050443 594.082148 90.6855787 592.533251 92.0930233M579.175913 29.4714379C575.820282 34.8789064 570.382467 40.7033939 562.514201 39.8169989L560.101746 38.7358726C560.263706 38.5273632 560.577039 38.3289577 560.498706 38.0579872 560.263706 37.5188019 559.639156 37.7916094 559.177625 37.7218001 559.331116 35.8984903 556.531228 36.1005699 556.913368 34.1394785 556.378796 33.1198947 556.913368 32.4429278 557.850192 31.5675553 561.42071 30.4855105 564.076634 27.509428 567.423796 25.7494977 569.9908 24.1227563 572.486881 22.3665002 575.441318 21.4883721 576.526341 22.1635019 578.470913 22.1010409 578.785305 23.4494635 579.404562 23.1830858 579.638503 23.85546 580.102152 24.1227563 580.343503 24.4635361 580.102152 25.8174699 581.431701 25.412392 581.589426 27.1034315 580.102152 28.1808836 579.175913 29.4714379M567.699874 123.796641C567.559302 124.546843 567.268329 125.216847 566.839734 125.819851 563.803195 126.119323 561.490157 124.699117 559.031632 123.646397 556.716628 121.857688 555.344336 120.208056 553.104041 118.415286 550.427287 113.86027 544.865378 108.779402 548.768938 103.173697 550.50003 102.866104 550.865712 100.254101 552.741308 100.325162 554.479282 99.4358833 555.921367 97.4857639 558.161662 98.5344226 559.539852 99.2907157 560.466837 100.851014 561.991496 101.900688 565.896038 107.132815 567.699874 113.18722 569.072165 119.535006 567.774583 120.879075 568.634723 122.754073 567.699874 123.796641M552.059666 20.4435074C550.966654 23.3445785 548.523451 26.3994025 545.45016 27.4433026 543.869579 27.7386696 542.771209 27.5909861 541.111332 27.5909861 540.875584 26.4752673 539.764356 27.5141097 538.988532 27.2925844 538.274859 26.8454877 538.274859 25.1349886 537.099336 26.1799002 536.464961 25.3534793 535.441602 25.0581122 535.051546 24.238772 537.336155 16.8667334 536.545329 7.48174787 543.161265 1.90315387 545.286208 1.67151325 546.785348-1.0818744 549.230694.473860431 553.326273 3.08866832 552.77441 8.15036993 553.569522 12.3967775 553.872779 15.4505899 552.302914 17.683039 552.059666 20.4435074M526.036946 126.978979C525.737759 129.001717 523.883642 130.649384 522.723766 131.996181 520.171195 131.996181 517.927293 132.145599 516.363935 130.575183 517.762951 127.503468 513.500589 126.230871 514.19799 123.233357 512.963317 117.477195 512.571424 110.065235 517.53224 105.951658 518.460351 105.271652 519.61496 104.606893 520.859115 105.049049 521.63658 104.227757 522.494108 105.271652 523.257878 104.372093 524.821236 104.832545 525.888406 105.355001 527.366432 105.951658 530.233992 110.963778 528.458886 117.699798 526.443588 122.489315L526.036946 126.978979zM521.911155 28.0515651C520.64207 27.913392 520.494153 29.5828258 519.389062 29.2326611 518.82955 30.5566622 517.256056 28.3969979 517.179953 30.2036583 516.384631 30.2036583 515.840125 30.3475097 515.055522 30.0730563L514.66322 30.6976744C514.17981 29.9310977 512.920371 30.9077732 512.606316 29.8639039 512.289044 30.6976744 511.823856 29.793871 511.270775 30.0730563 507.884761 25.468864 507.168756 19.9684394 504.882473 15.0169216 503.784886 11.9506147 503.865276 8.05432289 505.207248 5.12051073 507.098013 3.72931593 510.406853 4.49967822 512.453039 3.10280508 515.919443 2.68639303 515.765095 6.31296341 517.179953 7.97861161 519.310816 14.4604437 524.662627 21.0104159 521.911155 28.0515651M483.098756 115.788091C482.015956 114.709479 481.477698 117.164288 480.712198 116.551369L477.935036 116.402055C477.398872 115.471712 479.015742 114.551811 477.935036 113.637131L476.855378 113.637131C475.780956 111.62922 476.467916 109.485569 477.006174 107.330433 478.319357 101.566695 482.477769 96.5641462 487.401682 92.7247867 490.025953 90.9559875 492.799973 89.4952141 496.028476 89.0232558 495.948889 89.7123984 496.871468 90.0287775 497.340612 90.563385L498.488338 90.563385 498.262144 92.1818259C498.643323 92.639166 499.178439 92.1818259 499.566949 92.0293792 500.024573 92.7247867 499.10723 94.9592793 500.879085 94.9592793 500.498953 95.2537311 500.879085 95.7956478 500.498953 96.1015853 501.030928 96.2550762 500.642418 96.8742603 501.030928 97.1822862 495.792857 104.026725 489.551573 110.247803 483.098756 115.788091M495.546993 48.5444143C496.012842 49.7054177 494.855563 50.3647652 493.698283 50.2898617 493.927011 50.3647652 493.853566 50.6555088 493.853566 50.7974311 493.084495 51.8125699 491.845377 51.5198552 490.912628 52.1723036 487.062024 52.3950428 484.053937 49.8552246 480.739479 48.5444143 477.727195 46.3022388 472.250314 44.9904429 473.336247 40.349386 475.415783 38.4600451 472.642719 34.7661226 476.655951 34.1067751 483.057186 32.4362312 487.842637 37.3749307 493.310075 39.3312905 495.634077 40.5602983 497.250911 42.3757213 497.938144 44.6928003 497.164876 46.0105096 497.938144 48.835158 495.546993 48.5444143M484.238756 78.3935148C480.289151 80.7836733 474.783396 79.3655937 470.321487 79.6625897 468.608406 79.2186162 466.288861 78.9946022 464.434035 79.1425933 464.651714 78.0924644 463.466124 78.247551 462.955844 77.8775731 461.680145 77.5785499 461.903899 75.6333785 460.854991 74.8173999 460.854991 72.9512923 460.568464 71.0091618 461.759117 69.5880413 467.195012 66.5359772 473.151312 63.7626636 479.250368 61.7505921 481.034322 60.7856087 482.594522 62.0516426 484.238756 62.4266887 485.356511 63.4687086 484.909004 65.1827705 486.017647 66.2288449 487.655807 67.1259146 487.207287 68.9940494 487.806663 70.709125 486.769905 71.3842079 488.171149 71.9072451 487.955495 72.6573373 489.973327 73.621307 486.922786 74.5163494 487.806663 76.088502 487.207287 77.5785499 485.650125 78.1725418 484.238756 78.3935148"/>
    <path fill="#8AD3E0" d="M348.631429,98.2427496 C344.349014,98.1354163 341.792447,98.8661086 338.070791,100.89925 C333.742909,103.242006 328.911102,107.859404 327.835052,113.679141 C327.835052,113.679141 331.909077,109.364134 339.686761,111.258981 C345.071748,112.564526 353.364724,119.665038 361.444573,122.781833 C363.397756,123.54968 372.525239,126.97093 377.100348,125.495096 C379.459891,125.15968 378.680323,123.40416 379.241081,122.406167 C379.806576,121.403013 386.335814,124.11318 386.335814,122.519692 C387.023502,121.758038 383.12945,118.921962 383.970588,118.774378 C384.086149,118.397679 388.631894,116.263397 390.993332,114.440795 C393.085757,112.827699 394.851389,110.527256 395.876289,109.119538 C392.420803,110.533449 387.05476,111.739917 380.855157,111.121718 C374.940669,110.533449 370.119282,108.970923 367.004798,107.160705 C364.03524,105.423763 362.231719,103.11816 359.075558,101.318263 C355.924132,99.5152689 352.749973,98.2427496 348.631429,98.2427496"/>
    <path fill="#FAAB29" d="M250.515464,70.6046512 L281.443299,70.6046512 C279.12321,60.2895082 274.046435,50.2251047 265.970417,39.9069767 C258.309907,49.4669163 253.241568,59.5313198 250.515464,70.6046512"/>
    <path fill="#F05D2A" d="M454.639175,70.6046512 C452.310729,60.2895082 447.242563,50.2251047 439.172094,39.9069767 C431.505517,49.4669163 426.442624,59.5313198 423.71134,70.6046512 L454.639175,70.6046512 Z"/>
  </g>
</svg>
